<?xml version="1.0" encoding="UTF-8"?>
<!-- Generated by Pixelmator Pro 3.8 -->
<svg width="103" height="102" viewBox="0 0 103 102" xmlns="http://www.w3.org/2000/svg">
    <path id="Path-copy" fill="#3f5d50" stroke="none" d="M 94.525665 49.326115 C 97.949249 36.907249 100.106911 22.89032 100.615845 7.960205 C 100.746346 4.162537 97.736084 1 93.938408 1 L 7.30146 1 C 3.503785 1 0.493541 4.162537 0.624022 7.960205 C 1.13299 22.884743 3.290616 36.905388 6.714203 49.326115 C 7.036118 50.500622 7.036118 51.727386 6.714203 52.901894 C 3.290616 65.320763 1.137314 79.337692 0.624022 94.267799 C 0.493523 98.065475 3.503785 101.228004 7.30146 101.228004 L 93.938408 101.228004 C 97.736084 101.228004 100.74633 98.065475 100.615845 94.267799 C 100.10688 79.338623 97.949249 65.322617 94.525665 52.901894 C 94.199402 51.727386 94.199402 50.500622 94.525665 49.326115 Z"/>
</svg>
