<?xml version="1.0" encoding="utf-8"?>
<!-- Generator: Adobe Illustrator 16.0.0, SVG Export Plug-In . SVG Version: 6.00 Build 0)  -->
<!DOCTYPE svg PUBLIC "-//W3C//DTD SVG 1.1//EN" "http://www.w3.org/Graphics/SVG/1.1/DTD/svg11.dtd">
<svg version="1.1" xmlns="http://www.w3.org/2000/svg" xmlns:xlink="http://www.w3.org/1999/xlink" x="0px" y="0px" width="128px"
	 height="128px" viewBox="0 0 128 128" enable-background="new 0 0 128 128" xml:space="preserve">
<g id="Ebene_1">
	<g>
		<path fill="none" stroke="#000000" stroke-width="3" stroke-linecap="round" stroke-miterlimit="10" d="M81.403,78.6
			c-2.403,1-6.126,1.999-11.403,1.999c-10.555,0-18-3.2-18-5.598c0-2.402,7.445-8,18-8s18,4.8,18,7.198
			c0,2.402-0.615,15.203-4.971,20.801c-3.723,4.8-8.059,8-13.029,8s-9.307-2.399-13.029-8C53.248,89.401,52,79.801,52,75"/>
		<path fill="none" stroke="#000000" stroke-width="3" stroke-linecap="round" stroke-miterlimit="10" d="M87.849,77.5
			c0,0,10.151,0,10.151,6s-3.534,9-13.534,9"/>
		<path fill="none" stroke="#000000" stroke-width="3" stroke-linecap="round" stroke-miterlimit="10" d="M59.134,97.825
			C57.505,98.583,55.794,99,54,99c-4.971,0-9.307-2.399-13.029-8C37.248,85.401,36,75.801,36,71"/>
		<path fill="none" stroke="#000000" stroke-width="3" stroke-linecap="round" stroke-miterlimit="10" d="M47.032,76.105
			C40.315,75.117,36,72.826,36,71c0-2.402,7.445-8,18-8c6.241,0,11.395,1.678,14.565,3.546"/>
		<path fill="none" stroke="#000000" stroke-width="3" stroke-linecap="round" stroke-miterlimit="10" d="M43.417,94.132
			C38.646,95.691,35,98.227,35,101c0,4,12,10,29,10s27.125-5.375,29-10"/>
	</g>
</g>
<g id="Ebene_3">
</g>
<g id="Hilfslinien">
</g>
</svg>
