<?xml version="1.0" encoding="utf-8"?>
<!-- Generator: Adobe Illustrator 16.0.0, SVG Export Plug-In . SVG Version: 6.00 Build 0)  -->
<!DOCTYPE svg PUBLIC "-//W3C//DTD SVG 1.1//EN" "http://www.w3.org/Graphics/SVG/1.1/DTD/svg11.dtd">
<svg version="1.1" xmlns="http://www.w3.org/2000/svg" xmlns:xlink="http://www.w3.org/1999/xlink" x="0px" y="0px" width="128px"
	 height="128px" viewBox="0 0 128 128" enable-background="new 0 0 128 128" xml:space="preserve">
<g id="Ebene_1">
</g>
<g id="Ebene_3">
	<g>
		<path fill="none" stroke="#000000" stroke-width="3" stroke-linecap="round" stroke-miterlimit="10" d="M88,68c0,0-7,5-24,5
			s-29-4-29-7s12-10,29-10s29,6,29,9s-1,19-8,26c-6,6-13,10-21,10s-15-3-21-10s-8-19-8-25"/>
		<path fill="none" stroke="#000000" stroke-width="3" stroke-linecap="round" stroke-miterlimit="10" d="M45.358,93.495
			C37.899,95.604,35,98.647,35,101c0,4,12,10,29,10s27.125-5.375,29-10"/>
		<path fill="none" stroke="#000000" stroke-width="3" stroke-linecap="round" stroke-miterlimit="10" d="M92.548,71
			c0,0,9.452,0,9.452,6s-3.534,9-13.534,9"/>
	</g>
</g>
<g id="Hilfslinien">
</g>
</svg>
