<?xml version="1.0" encoding="utf-8"?>
<!-- Generator: Adobe Illustrator 16.0.0, SVG Export Plug-In . SVG Version: 6.00 Build 0)  -->
<!DOCTYPE svg PUBLIC "-//W3C//DTD SVG 1.1//EN" "http://www.w3.org/Graphics/SVG/1.1/DTD/svg11.dtd">
<svg version="1.1" xmlns="http://www.w3.org/2000/svg" xmlns:xlink="http://www.w3.org/1999/xlink" x="0px" y="0px" width="128px"
	 height="128px" viewBox="0 0 128 128" enable-background="new 0 0 128 128" xml:space="preserve">
<g id="Ebene_1">
	<g>
		<path fill="none" stroke="#000000" stroke-width="3" stroke-linecap="round" stroke-miterlimit="10" d="M75.403,77.6
			c-2.403,1-6.126,1.999-11.403,1.999c-10.555,0-18-3.2-18-5.598c0-2.402,7.445-8,18-8s18,4.8,18,7.198
			c0,2.402-0.615,15.203-4.971,20.801c-3.723,4.8-8.059,8-13.029,8s-9.307-2.399-13.029-8C47.248,88.401,46,78.801,46,74"/>
		<path fill="none" stroke="#000000" stroke-width="3" stroke-linecap="round" stroke-miterlimit="10" d="M50.189,92.699
			C42.583,93.495,35,97,35,101s12,10,29,10s27.125-5.375,29-10"/>
		<path fill="none" stroke="#000000" stroke-width="3" stroke-linecap="round" stroke-miterlimit="10" d="M81.849,76.5
			c0,0,10.151,0,10.151,6s-3.534,9-13.534,9"/>
		<path fill="none" stroke="#000000" stroke-width="3" stroke-linecap="round" stroke-miterlimit="10" d="M46.613,83
			c0,0,2.808,4.295,9.065,4.295c6.138,0,9.205-2.455,15.342-2.455c5.523,0,8.593,1.842,8.593,1.842"/>
	</g>
</g>
<g id="Ebene_3">
</g>
<g id="Hilfslinien">
</g>
</svg>
