<?xml version="1.0" encoding="utf-8"?>
<!-- Generator: Adobe Illustrator 16.0.0, SVG Export Plug-In . SVG Version: 6.00 Build 0)  -->
<!DOCTYPE svg PUBLIC "-//W3C//DTD SVG 1.1//EN" "http://www.w3.org/Graphics/SVG/1.1/DTD/svg11.dtd">
<svg version="1.1" xmlns="http://www.w3.org/2000/svg" xmlns:xlink="http://www.w3.org/1999/xlink" x="0px" y="0px" width="128px"
	 height="128px" viewBox="0 0 128 128" enable-background="new 0 0 128 128" xml:space="preserve">
<g id="Ebene_1">
	<g>
		<path fill="none" stroke="#000000" stroke-width="3" stroke-linecap="round" stroke-miterlimit="10" d="M88,68c0,0-7,5-24,5
			s-29-4-29-7c0-5.667,6.776-8,8.692-7.5c0.833-2.917,4.535-5.732,8.618-5.566c1.356-3.917,4.189-2.601,5.898-5.393
			c1.156-1.888,0.291-4.633-1.042-6.724c6.833-2.364,16.715,2.766,17.536,8.016c5.631,0.941,9.046,5.332,9.964,8.917
			C88.972,59.888,93,62.167,93,65c0,3-1,19-8,26c-6,6-13,10-21,10s-15-3-21-10s-8-19-8-25"/>
		<path fill="none" stroke="#000000" stroke-width="3" stroke-linecap="round" stroke-miterlimit="10" d="M45.358,93.495
			C37.899,95.604,35,98.647,35,101c0,4,12,10,29,10s29-6,29-10"/>
		<path fill="none" stroke="#000000" stroke-width="3" stroke-linecap="round" stroke-miterlimit="10" d="M88.468,86
			c10,0,13.532-3,13.532-9s-9.452-6-9.452-6"/>
	</g>
</g>
<g id="Ebene_3">
</g>
<g id="Hilfslinien">
</g>
</svg>
