<?xml version="1.0" encoding="utf-8"?>
<!-- Generator: Adobe Illustrator 16.0.0, SVG Export Plug-In . SVG Version: 6.00 Build 0)  -->
<!DOCTYPE svg PUBLIC "-//W3C//DTD SVG 1.1//EN" "http://www.w3.org/Graphics/SVG/1.1/DTD/svg11.dtd">
<svg version="1.1" xmlns="http://www.w3.org/2000/svg" xmlns:xlink="http://www.w3.org/1999/xlink" x="0px" y="0px" width="128px"
	 height="128px" viewBox="0 0 128 128" enable-background="new 0 0 128 128" xml:space="preserve">
<g id="Ebene_1">
	<g>
		<path fill="none" stroke="#000000" stroke-width="3" stroke-linecap="round" stroke-miterlimit="10" d="M74.403,77.6
			c-2.403,1-6.126,1.999-11.403,1.999c-10.555,0-18-3.265-18-5.598c0-3.792,3.977-6.39,7.557-6.243
			c1.189-3.435,3.674-2.281,5.172-4.729c1.014-1.655,0.256-4.062-0.914-5.896c5.992-2.073,14.658,2.426,15.377,7.029
			C77.13,64.987,81,70.437,81,73.198S80.385,88.401,76.029,94c-3.723,4.8-8.059,8-13.029,8s-9.307-2.399-13.029-8
			C46.248,88.401,45,78.801,45,74"/>
		<path fill="none" stroke="#000000" stroke-width="3" stroke-linecap="round" stroke-miterlimit="10" d="M49.189,92.699
			C41.583,93.495,34,97,34,101s12,10,29,10s27.125-5.375,29-10"/>
		<path fill="none" stroke="#000000" stroke-width="3" stroke-linecap="round" stroke-miterlimit="10" d="M80.849,76.5
			c0,0,10.151,0,10.151,6s-3.534,9-13.534,9"/>
	</g>
</g>
<g id="Ebene_3">
</g>
<g id="Hilfslinien">
</g>
</svg>
