<?xml version="1.0" encoding="utf-8"?>
<!-- Generator: Adobe Illustrator 16.0.0, SVG Export Plug-In . SVG Version: 6.00 Build 0)  -->
<!DOCTYPE svg PUBLIC "-//W3C//DTD SVG 1.1//EN" "http://www.w3.org/Graphics/SVG/1.1/DTD/svg11.dtd">
<svg version="1.1" xmlns="http://www.w3.org/2000/svg" xmlns:xlink="http://www.w3.org/1999/xlink" x="0px" y="0px" width="128px"
	 height="128px" viewBox="0 0 128 128" enable-background="new 0 0 128 128" xml:space="preserve">
<g id="Ebene_1">
	<g>
		<path fill="none" stroke="#000000" stroke-width="3" stroke-linecap="round" stroke-miterlimit="10" d="M63,102
			c-4.971,0-9.307-2.399-13.029-8C46.248,88.401,45,78.801,45,74"/>
		<path fill="none" stroke="#000000" stroke-width="3" stroke-linecap="round" stroke-miterlimit="10" d="M74.403,77.6
			c-2.403,1-6.126,1.999-11.403,1.999c-10.555,0-18-3.2-18-5.598c0-2.402,7.445-8,18-8s18,4.8,18,7.198
			c0,1.429-0.218,6.538-1.312,11.622"/>
		<path fill="none" stroke="#000000" stroke-width="3" stroke-linecap="round" stroke-miterlimit="10" d="M49.189,92.699
			C41.583,93.495,34,97,34,101s12,10,29,10s27.125-5.375,29-10"/>
		<path fill="none" stroke="#000000" stroke-width="3" stroke-linecap="round" stroke-miterlimit="10" d="M80.849,76.5
			c0,0,10.151,0,10.151,6c0,3.584-1.262,6.098-4.409,7.541"/>
		<g>
			<polyline fill="none" stroke="#000000" stroke-width="3" stroke-linecap="round" stroke-miterlimit="10" points="67,92 70,95 
				67,98 			"/>
			
				<line fill="none" stroke="#000000" stroke-width="3" stroke-linecap="round" stroke-miterlimit="10" x1="78" y1="95" x2="70" y2="95"/>
			<polyline fill="none" stroke="#000000" stroke-width="3" stroke-linecap="round" stroke-miterlimit="10" points="81,92 78,95 
				81,98 			"/>
			<polyline fill="none" stroke="#000000" stroke-width="3" stroke-linecap="round" stroke-miterlimit="10" points="77,88 74,91 
				71,88 			"/>
			
				<line fill="none" stroke="#000000" stroke-width="3" stroke-linecap="round" stroke-miterlimit="10" x1="74" y1="99" x2="74" y2="91"/>
			<polyline fill="none" stroke="#000000" stroke-width="3" stroke-linecap="round" stroke-miterlimit="10" points="77,102 74,99 
				71,102 			"/>
		</g>
	</g>
</g>
<g id="Ebene_3">
</g>
<g id="Hilfslinien">
</g>
</svg>
